<svg width="21" height="20" viewBox="0 0 21 20" fill="none" xmlns="http://www.w3.org/2000/svg">
<path d="M10.4976 20C13.283 20 15.9543 18.9461 17.9239 17.0703C19.8935 15.1946 21 12.6504 21 9.99766C20.999 8.02007 20.3826 6.08713 19.2285 4.44311C18.0744 2.79909 16.4345 1.51779 14.516 0.761124C12.5975 0.00445587 10.4866 -0.193615 8.44998 0.191942C6.41335 0.5775 4.54243 1.52938 3.07366 2.92729C1.10556 4.8029 0 7.34602 0 9.99766C0 12.6493 1.10556 15.1924 3.07366 17.068C4.04537 18.0009 5.20208 18.7405 6.47656 19.2438C7.75104 19.7471 9.11786 20.0041 10.4976 20ZM3.99919 3.80874C4.85253 2.99595 5.86563 2.3512 6.98063 1.91132C8.09563 1.47143 9.29069 1.24502 10.4976 1.24502C11.7044 1.24502 12.8995 1.47143 14.0145 1.91132C15.1295 2.3512 16.1426 2.99595 16.9959 3.80874C18.281 5.03277 19.1562 6.59223 19.5107 8.28992C19.8652 9.98762 19.6832 11.7473 18.9876 13.3465C18.292 14.9456 17.1142 16.3125 15.603 17.2741C14.0917 18.2358 12.3151 18.749 10.4976 18.749C8.68007 18.749 6.90339 18.2358 5.39218 17.2741C3.88097 16.3125 2.70311 14.9456 2.00755 13.3465C1.31198 11.7473 1.12994 9.98762 1.48444 8.28992C1.83895 6.59223 2.71409 5.03277 3.99919 3.80874Z" fill="#ABABAB"/>
<path d="M10.4976 15.7363C11.289 15.7371 12.0727 15.589 12.8038 15.3004C13.5349 15.0118 14.1989 14.5884 14.7576 14.0546C14.8651 13.9351 14.9213 13.7812 14.915 13.6239C14.9086 13.4666 14.8401 13.3173 14.7232 13.206C14.6063 13.0946 14.4496 13.0294 14.2844 13.0233C14.1192 13.0173 13.9577 13.0708 13.8321 13.1732C13.1727 13.8004 12.333 14.2274 11.4189 14.4001C10.5048 14.5729 9.55747 14.4837 8.69661 14.1438C7.83575 13.8039 7.10001 13.2286 6.58239 12.4906C6.06477 11.7526 5.7885 10.885 5.7885 9.99747C5.7885 9.10995 6.06477 8.24235 6.58239 7.50433C7.10001 6.7663 7.83575 6.191 8.69661 5.85112C9.55747 5.51123 10.5048 5.42204 11.4189 5.5948C12.333 5.76757 13.1727 6.19454 13.8321 6.82174C13.9577 6.92416 14.1192 6.97767 14.2844 6.9716C14.4496 6.96552 14.6063 6.9003 14.7232 6.78896C14.8401 6.67763 14.9086 6.52838 14.915 6.37105C14.9213 6.21372 14.8651 6.05988 14.7576 5.94029C14.1983 5.405 13.5334 4.98024 12.8012 4.69039C12.069 4.40055 11.2839 4.25134 10.491 4.25134C9.69807 4.25134 8.91295 4.40055 8.18075 4.69039C7.44855 4.98024 6.78369 5.405 6.22438 5.94029C5.3812 6.74363 4.80729 7.7672 4.57533 8.88138C4.34338 9.99556 4.46381 11.1502 4.92138 12.1992C5.37895 13.2481 6.15308 14.1442 7.14573 14.7738C8.13837 15.4035 9.30489 15.7385 10.4976 15.7363Z" fill="#ABABAB"/>
</svg>
