<svg width="99" height="86" viewBox="0 0 99 86" fill="none" xmlns="http://www.w3.org/2000/svg">
<path d="M73.021 56.9802V50.1062C73.021 49.276 72.6332 48.4798 71.9431 47.8927C71.2529 47.3056 70.3169 46.9758 69.3409 46.9758H65.1862C64.4532 46.9746 63.7372 46.788 63.1293 46.4398C62.5213 46.0915 62.0487 45.5974 61.7718 45.0201L61.7522 44.9802C61.4683 44.4052 61.3909 43.7714 61.53 43.159C61.669 42.5465 62.0183 41.9829 62.5336 41.5391L65.4635 39.0467C65.8054 38.7562 66.0766 38.4111 66.2616 38.0314C66.4466 37.6516 66.5418 37.2446 66.5418 36.8335C66.5418 36.4224 66.4466 36.0154 66.2616 35.6356C66.0766 35.2558 65.8054 34.9108 65.4635 34.6203L59.7637 29.7485C59.4222 29.4577 59.0166 29.227 58.5701 29.0696C58.1237 28.9122 57.6452 28.8312 57.1619 28.8312C56.6787 28.8312 56.2001 28.9122 55.7537 29.0696C55.3073 29.227 54.9017 29.4577 54.5601 29.7485L51.6301 32.2409C51.1084 32.6792 50.4458 32.9763 49.7258 33.0945C49.0058 33.2128 48.2608 33.147 47.5848 32.9055L47.5379 32.8889C46.8599 32.6535 46.2794 32.252 45.8701 31.7355C45.4607 31.219 45.241 30.6107 45.2388 29.9878V26.4669C45.2388 25.6366 44.8511 24.8404 44.161 24.2533C43.4708 23.6662 42.5348 23.3364 41.5588 23.3364H33.47C32.494 23.3364 31.558 23.6662 30.8678 24.2533C30.1777 24.8404 29.79 25.6366 29.79 26.4669V30.001C29.7885 30.6245 29.5692 31.2336 29.1598 31.7508C28.7504 32.2679 28.1695 32.6699 27.4909 32.9055L27.444 32.9221C26.768 33.1637 26.0229 33.2294 25.303 33.1112C24.583 32.9929 23.9204 32.6958 23.3987 32.2575L20.4687 29.7651C20.1271 29.4743 19.7215 29.2436 19.2751 29.0862C18.8286 28.9289 18.3501 28.8478 17.8669 28.8478C17.3836 28.8478 16.9051 28.9289 16.4587 29.0862C16.0122 29.2436 15.6066 29.4743 15.265 29.7651L9.54375 34.6136C9.2019 34.9042 8.93072 35.2492 8.7457 35.6289C8.56068 36.0087 8.46544 36.4158 8.46544 36.8268C8.46544 37.2379 8.56068 37.645 8.7457 38.0247C8.93072 38.4045 9.2019 38.7495 9.54375 39.0401L12.4737 41.5324C12.989 41.9762 13.3383 42.5399 13.4773 43.1523C13.6164 43.7648 13.539 44.3985 13.2551 44.9736L13.2355 45.0135C12.9588 45.5902 12.4869 46.084 11.8797 46.4322C11.2725 46.7804 10.5573 46.9673 9.82503 46.9692H5.68007C5.19614 46.9692 4.71696 47.0503 4.26997 47.2081C3.82297 47.3658 3.41694 47.597 3.07511 47.8884C2.73328 48.1798 2.46237 48.5257 2.27789 48.9062C2.09341 49.2868 1.99898 49.6946 2.00001 50.1062V56.9802C2.00001 57.8104 2.38773 58.6067 3.07787 59.1937C3.76802 59.7808 4.70406 60.1106 5.68007 60.1106H9.8348C10.5671 60.1125 11.2822 60.2994 11.8894 60.6476C12.4966 60.9958 12.9686 61.4896 13.2453 62.0663L13.2648 62.1062C13.5488 62.6813 13.6261 63.315 13.4871 63.9275C13.348 64.5399 12.9988 65.1036 12.4835 65.5473L9.55352 68.0397C9.21167 68.3303 8.94049 68.6753 8.75546 69.0551C8.57044 69.4348 8.47521 69.8419 8.47521 70.2529C8.47521 70.664 8.57044 71.0711 8.75546 71.4508C8.94049 71.8306 9.21167 72.1756 9.55352 72.4662L15.267 77.3263C15.6086 77.6171 16.0142 77.8478 16.4606 78.0052C16.907 78.1626 17.3856 78.2436 17.8688 78.2436C18.3521 78.2436 18.8306 78.1626 19.277 78.0052C19.7235 77.8478 20.1291 77.6171 20.4707 77.3263L23.4006 74.8339C23.9223 74.3956 24.585 74.0985 25.3049 73.9803C26.0249 73.862 26.7699 73.9277 27.446 74.1693L27.4929 74.1859C28.1708 74.4213 28.7513 74.8228 29.1607 75.3393C29.57 75.8558 29.7897 76.4641 29.7919 77.087V80.6212C29.7924 81.4509 30.1801 82.2465 30.8698 82.8331C31.5595 83.4198 32.4947 83.7496 33.47 83.75H41.5509C42.527 83.75 43.463 83.4202 44.1531 82.8331C44.8433 82.2461 45.231 81.4498 45.231 80.6196V77.0854C45.2332 76.4625 45.4529 75.8541 45.8622 75.3376C46.2716 74.8211 46.8521 74.4197 47.5301 74.1843L47.5769 74.1676C48.253 73.9261 48.998 73.8603 49.718 73.9786C50.438 74.0969 51.1006 74.3939 51.6223 74.8323L54.5523 77.3247C54.8939 77.6154 55.2995 77.8461 55.7459 78.0035C56.1923 78.1609 56.6708 78.2419 57.1541 78.2419C57.6374 78.2419 58.1159 78.1609 58.5623 78.0035C59.0087 77.8461 59.4143 77.6154 59.7559 77.3247L65.4831 72.4728C65.8249 72.1823 66.0961 71.8372 66.2811 71.4575C66.4661 71.0777 66.5614 70.6707 66.5614 70.2596C66.5614 69.8485 66.4661 69.4415 66.2811 69.0617C66.0961 68.6819 65.8249 68.3369 65.4831 68.0464L62.5531 65.554C62.0378 65.1102 61.6886 64.5465 61.5495 63.9341C61.4105 63.3217 61.4878 62.6879 61.7718 62.1128L61.7913 62.073C62.068 61.4962 62.54 61.0024 63.1472 60.6542C63.7544 60.306 64.4695 60.1192 65.2018 60.1173H69.3565C70.3312 60.1138 71.2644 59.7815 71.9514 59.1934C72.6384 58.6052 73.023 57.8093 73.021 56.9802Z" stroke="white" stroke-width="3" stroke-linecap="round" stroke-linejoin="round"/>
<path d="M37.5115 65.971C45.5808 65.971 52.1224 60.4065 52.1224 53.5424C52.1224 46.6782 45.5808 41.1137 37.5115 41.1137C29.4421 41.1137 22.9006 46.6782 22.9006 53.5424C22.9006 60.4065 29.4421 65.971 37.5115 65.971Z" stroke="white" stroke-width="3" stroke-linecap="round" stroke-linejoin="round"/>
<path d="M40.5684 23.3364V23.2683C40.5684 22.6073 40.8771 21.9733 41.4266 21.5059C41.9761 21.0385 42.7213 20.7759 43.4984 20.7759H46.7995C47.3818 20.7754 47.9506 20.6274 48.4335 20.3507C48.9164 20.0739 49.2914 19.6811 49.5107 19.2223C49.5107 19.2124 49.5205 19.2007 49.5264 19.1908C49.7521 18.7332 49.8129 18.2289 49.7009 17.7419C49.5889 17.2549 49.3092 16.8072 48.8974 16.4558L46.5534 14.4719C46.0065 14.0047 45.6994 13.3723 45.6994 12.7131C45.6994 12.0538 46.0065 11.4214 46.5534 10.9543L51.0929 7.09276C51.642 6.62805 52.385 6.36717 53.1596 6.36717C53.9341 6.36717 54.6771 6.62805 55.2262 7.09276L57.5604 9.08666C57.9744 9.43533 58.5007 9.67165 59.0727 9.76571C59.6447 9.85977 60.2367 9.80734 60.7736 9.61505L60.8107 9.60175C61.3505 9.41546 61.8127 9.09655 62.1383 8.68576C62.464 8.27497 62.6383 7.79094 62.639 7.29547V4.49238C62.639 3.83136 62.9477 3.19741 63.4972 2.73C64.0467 2.26259 64.792 2 65.569 2H71.9896C72.7667 2 73.512 2.26259 74.0614 2.73C74.6109 3.19741 74.9196 3.83136 74.9196 4.49238V7.30046C74.9202 7.79573 75.0942 8.27963 75.4195 8.6904C75.7448 9.10117 76.2066 9.42018 76.746 9.60674L76.7811 9.62003C77.3184 9.81224 77.9106 9.86463 78.4829 9.77058C79.0552 9.67653 79.5818 9.44026 79.9963 9.09165L82.3403 7.09774C82.8893 6.63303 83.6324 6.37215 84.4069 6.37215C85.1814 6.37215 85.9245 6.63303 86.4735 7.09774L91.0131 10.9593C91.56 11.4264 91.867 12.0588 91.867 12.7181C91.867 13.3773 91.56 14.0097 91.0131 14.4768L88.6652 16.4558C88.2548 16.8081 87.9768 17.2562 87.8665 17.7432C87.7562 18.2302 87.8187 18.734 88.046 19.1908L88.0596 19.2223C88.2788 19.6809 88.6535 20.0735 89.136 20.3502C89.6186 20.6269 90.187 20.7751 90.7689 20.7759H94.07C94.8471 20.7759 95.5923 21.0385 96.1418 21.5059C96.6913 21.9733 97 22.6073 97 23.2683V28.7283C97 29.3893 96.6913 30.0232 96.1418 30.4906C95.5923 30.958 94.8471 31.2206 94.07 31.2206H90.7689C90.1868 31.2216 89.6182 31.3701 89.1356 31.6471C88.6531 31.924 88.2785 32.317 88.0596 32.7759L88.046 32.8058C87.8174 33.2623 87.7542 33.7665 87.8645 34.2537C87.9748 34.741 88.2536 35.1891 88.6652 35.5408L90.9994 37.5264C91.5457 37.9934 91.8524 38.6255 91.8524 39.2843C91.8524 39.9432 91.5457 40.5752 90.9994 41.0423L86.4599 44.9038C85.9108 45.3685 85.1678 45.6294 84.3932 45.6294C83.6187 45.6294 82.8757 45.3685 82.3266 44.9038L79.9826 42.9182C79.5694 42.5679 79.0427 42.3304 78.4699 42.2363C77.8971 42.1421 77.3043 42.1956 76.7674 42.3898L76.7323 42.4014C76.1957 42.589 75.7366 42.9078 75.4132 43.3175C75.0898 43.7271 74.9167 44.2093 74.9157 44.7027V47.5108C74.9134 48.0176 74.7295 48.5118 74.3885 48.9274C74.0475 49.343 73.5657 49.6603 73.0073 49.837" stroke="white" stroke-width="3" stroke-linecap="round" stroke-linejoin="round"/>
<path d="M68.7803 34.0885C74.0329 34.0885 78.291 30.4663 78.291 25.9982C78.291 21.5301 74.0329 17.908 68.7803 17.908C63.5277 17.908 59.2696 21.5301 59.2696 25.9982C59.2696 30.4663 63.5277 34.0885 68.7803 34.0885Z" stroke="white" stroke-width="3" stroke-linecap="round" stroke-linejoin="round"/>
</svg>
