<svg width="53" height="54" viewBox="0 0 53 54" fill="none" xmlns="http://www.w3.org/2000/svg">
<path d="M39.217 31.0291C39.1138 30.9786 35.2499 29.0401 34.5634 28.7883C34.283 28.6857 33.9828 28.5856 33.6634 28.5856C33.1417 28.5856 32.7034 28.8505 32.362 29.3709C31.976 29.9554 30.8076 31.347 30.4466 31.7627C30.3994 31.8175 30.3351 31.8831 30.2965 31.8831C30.262 31.8831 29.664 31.6322 29.483 31.5521C25.3381 29.7177 22.1921 25.3063 21.7607 24.5624C21.6991 24.4555 21.6965 24.4069 21.696 24.4069C21.7111 24.3503 21.8505 24.2079 21.9224 24.1345C22.1329 23.9223 22.3609 23.6427 22.5815 23.3722C22.6859 23.244 22.7905 23.1157 22.8933 22.9947C23.2133 22.6153 23.3558 22.3207 23.521 21.9796L23.6076 21.8023C24.0109 20.9858 23.6664 20.2968 23.5551 20.0743C23.4637 19.8881 21.8323 15.8763 21.6588 15.4548C21.2417 14.4378 20.6905 13.9642 19.9246 13.9642C19.8535 13.9642 19.9246 13.9642 19.6266 13.977C19.2637 13.9926 17.2874 14.2577 16.4136 14.8189C15.4869 15.4142 13.9193 17.3115 13.9193 20.6483C13.9193 23.6514 15.7898 26.487 16.5929 27.5654C16.6128 27.5926 16.6495 27.6478 16.7026 27.727C19.7782 32.3034 23.6122 35.6948 27.4989 37.2768C31.2407 38.7997 33.0126 38.9757 34.0199 38.9757H34.0201C34.4434 38.9757 34.7822 38.9419 35.0811 38.9119L35.2708 38.8935C36.5634 38.7767 39.4041 37.277 40.0502 35.4475C40.5592 34.0065 40.6934 32.4321 40.3548 31.8607C40.1228 31.4722 39.7231 31.2767 39.217 31.0291Z" fill="white"/>
<path d="M26.9703 0C12.6163 0 0.938467 11.8088 0.938467 26.3238C0.938467 31.0184 2.17157 35.6139 4.50751 39.6358L0.0364403 53.0736C-0.0468449 53.3241 0.0151028 53.6011 0.196988 53.7898C0.328283 53.9264 0.506382 54 0.688268 54C0.757959 54 0.828166 53.9893 0.896653 53.967L14.649 49.5145C18.4124 51.5632 22.6658 52.6446 26.9704 52.6446C41.323 52.6447 52.9996 40.8372 52.9996 26.3238C52.9996 11.8088 41.323 0 26.9703 0ZM26.9703 47.1613C22.9197 47.1613 18.9966 45.9696 15.6242 43.7149C15.5108 43.639 15.3792 43.6001 15.2467 43.6001C15.1766 43.6001 15.1064 43.611 15.0381 43.6331L8.149 45.8642L10.3729 39.1793C10.4449 38.9629 10.4089 38.7243 10.2764 38.5399C7.70832 34.9647 6.3508 30.7406 6.3508 26.3238C6.3508 14.8325 15.6006 5.48345 26.9701 5.48345C38.3382 5.48345 47.587 14.8325 47.587 26.3238C47.5871 37.8137 38.3385 47.1613 26.9703 47.1613Z" fill="white"/>
</svg>
