<svg width="115" height="113" viewBox="0 0 115 113" fill="none" xmlns="http://www.w3.org/2000/svg">
<path d="M63.6264 100.4C62.562 101.251 61.4922 101.92 60.4156 102.425C59.6843 102.502 58.9483 102.558 58.2084 102.601V94.1698C56.4389 92.7467 54.6591 91.2689 52.8737 89.7504V102.603C52.1341 102.558 51.3978 102.502 50.6685 102.425C49.5917 101.92 48.5203 101.251 47.4559 100.4C43.9864 97.625 40.739 92.9412 38.2487 86.9128H49.5884C47.6556 85.215 45.721 83.4659 43.7867 81.6711H36.3838C35.4997 78.7821 34.7882 75.6664 34.2462 72.3986C32.1398 70.2571 30.0941 68.1105 28.1074 65.9675C28.5537 71.5471 29.4687 76.8403 30.8319 81.6711H17.2055C13.3903 75.6119 11.0252 68.5886 10.5771 61.0431H23.6583C22.1128 59.2889 20.6088 57.5399 19.1623 55.8011H10.5773C10.7613 52.7093 11.2841 49.7128 12.0777 46.8273C10.2664 44.3993 8.56795 42.0071 7.00175 39.6641C4.673 45.4759 3.37947 51.7998 3.37947 58.4238C3.38104 86.7319 26.7305 109.674 55.5396 109.675C62.279 109.675 68.7147 108.404 74.6274 106.118C71.4514 104.065 68.1831 101.784 64.8595 99.3114C64.4512 99.6985 64.0415 100.067 63.6264 100.4ZM23.6864 89.7235C22.7729 88.8259 21.9046 87.8839 21.0728 86.9131H32.5634C33.4194 89.2064 34.3607 91.3905 35.4146 93.3972C36.6562 95.7554 38.0318 97.9002 39.5337 99.8011C33.5357 97.5605 28.1492 94.1054 23.6864 89.7235Z" fill="white"/>
<path d="M17.6188 23.2511C18.758 25.256 20.0533 27.3447 21.4792 29.4962C22.1912 28.684 22.9135 27.8819 23.6862 27.1227C28.1577 22.7322 33.5566 19.27 39.5683 17.0296C36.7742 20.555 34.4248 24.9282 32.5547 29.9314H21.7624C22.9048 31.641 24.1361 33.3918 25.4402 35.1732H30.8461C30.3546 36.9119 29.9326 38.7208 29.5523 40.5703C30.9815 42.3756 32.4767 44.2013 34.0326 46.0409C34.5937 42.1878 35.3818 38.5277 36.4101 35.1729H52.8739V55.8009H42.7396C44.3878 57.5533 46.0755 59.3024 47.8034 61.0429H52.8739V66.0255C54.6452 67.7216 56.4252 69.3835 58.2086 71.0011V61.0429H77.9183C77.6996 68.5678 76.5379 75.5913 74.6745 81.6709H70.769C73.3323 83.6996 75.8623 85.6091 78.337 87.3818C78.3979 87.2214 78.4689 87.0746 78.5297 86.9126H90.01C89.1764 87.8835 88.3099 88.8255 87.3964 89.7231C86.6253 90.4805 85.8161 91.2007 84.9895 91.9001C87.1758 93.2994 89.2977 94.5689 91.3331 95.6883C101.407 86.3445 107.703 73.1099 107.703 58.4236C107.701 30.1157 84.3503 7.17053 55.5396 7.16876C40.5932 7.17053 27.1281 13.356 17.6188 23.2511ZM93.8768 81.6713H80.2363C81.9972 75.4344 83.0635 68.4555 83.2701 61.0433H100.505C100.057 68.5888 97.692 75.6118 93.8768 81.6713ZM93.8732 35.1732C97.6903 41.2324 100.055 48.2574 100.505 55.8011H83.2526C83.0442 48.3956 82.0094 41.4063 80.2484 35.1732H93.8732ZM87.3942 27.1227C88.3076 28.0203 89.1742 28.9605 90.0059 29.9314H78.5189C77.663 27.6398 76.7198 25.4557 75.6675 23.4491C74.4259 21.0926 73.0506 18.9478 71.5502 17.0451C77.5464 19.2855 82.9316 22.7426 87.3942 27.1227ZM58.2084 14.2432C58.9499 14.2876 59.6863 14.3439 60.4172 14.4207C61.494 14.9241 62.5618 15.5931 63.6264 16.4443C67.096 19.2173 70.3416 23.9028 72.8318 29.9312H58.2084V14.2432ZM58.2084 35.1732H74.6968C76.5601 41.2512 77.7148 48.283 77.9354 55.8011H58.2084V35.1732ZM47.4559 16.4443C48.5203 15.5929 49.5884 14.9241 50.6651 14.4189C51.396 14.3421 52.1325 14.2858 52.8737 14.2415V29.9314H38.2782C38.8669 28.503 39.4852 27.1245 40.1536 25.855C42.2966 21.7733 44.8181 18.562 47.4559 16.4443Z" fill="white"/>
<path d="M112.991 93.6342C111.911 90.7725 110.41 87.6791 108.573 84.3994C107.318 86.8601 105.894 89.2267 104.31 91.4757C105.114 93.1087 105.788 94.6443 106.321 96.0606C107.406 98.9187 107.896 101.302 107.887 102.896C107.887 103.652 107.785 104.22 107.651 104.603C107.516 104.987 107.373 105.186 107.21 105.352C107.045 105.509 106.843 105.647 106.451 105.782C106.064 105.911 105.486 106.012 104.716 106.012C103.184 106.019 100.934 105.594 98.2405 104.647C95.5421 103.707 92.3937 102.268 88.9399 100.381C77.0985 93.914 61.7182 82.171 46.553 67.2592C31.3775 52.3579 19.4267 37.2447 12.8434 25.6073C10.923 22.2133 9.46077 19.1215 8.50214 16.4697C7.54014 13.8232 7.10597 11.612 7.11293 10.1068C7.11293 9.34907 7.21715 8.78097 7.34922 8.40202C7.48466 8.01645 7.62549 7.82024 7.78676 7.65648C7.95701 7.49448 8.15826 7.35434 8.55088 7.22147C8.93811 7.0917 9.51625 6.98929 10.2891 6.98929C11.9092 6.9809 14.3352 7.46204 17.2388 8.52518C18.6853 9.05068 20.2553 9.7161 21.9259 10.5078C24.2147 8.95158 26.6178 7.55253 29.1238 6.31879C25.7791 4.50812 22.624 3.03227 19.7066 1.9709C16.2925 0.737155 13.1929 0.0101524 10.2894 0C8.90846 0.00198635 7.5608 0.172591 6.26885 0.60098C4.98049 1.02738 3.75075 1.73386 2.75596 2.71666C1.75914 3.69085 1.04196 4.89745 0.611162 6.16187C0.17542 7.4296 0.00179688 8.75206 0 10.107C0.00875977 12.8031 0.670234 15.6679 1.80069 18.8094C2.93632 21.9474 4.56339 25.3533 6.62822 29.0048C13.7027 41.4798 25.9698 56.9104 41.5238 72.2008C57.0849 87.4846 72.7885 99.5382 85.4823 106.49C89.2002 108.519 92.6664 110.118 95.8599 111.234C99.0568 112.343 101.972 112.993 104.716 113.001C106.095 113.001 107.441 112.829 108.731 112.402C110.016 111.978 111.244 111.275 112.237 110.295C113.237 109.316 113.956 108.108 114.389 106.845C114.825 105.575 114.998 104.251 115 102.896C114.99 100.04 114.25 96.9924 112.991 93.6342Z" fill="white"/>
</svg>
