<svg width="119" height="112" viewBox="0 0 119 112" fill="none" xmlns="http://www.w3.org/2000/svg">
<path d="M70.8 109H19.95C14.6849 109 12.0523 109 9.97566 108.104C7.20688 106.908 5.00705 104.615 3.86016 101.73C3 99.5648 3 96.8212 3 91.3334C3 85.8455 3 83.1019 3.86016 80.9371C5.00705 78.0516 7.20688 75.7584 9.97566 74.563C12.0523 73.6667 14.6849 73.6667 19.95 73.6667H99.05C104.315 73.6667 106.948 73.6667 109.025 74.563C111.793 75.7584 113.993 78.0516 115.14 80.9371C116 83.1019 116 85.8455 116 91.3334C116 96.8212 116 99.5648 115.14 101.73C113.993 104.615 111.793 106.908 109.025 108.104C106.948 109 104.315 109 99.05 109H93.4" stroke="white" stroke-width="6" stroke-linecap="round"/>
<path d="M3 56C3 50.5121 3 47.7685 3.86016 45.6037C5.00705 42.7181 7.20688 40.4252 9.97566 39.2298C12.0523 38.3333 14.6849 38.3333 19.95 38.3333H99.05C104.315 38.3333 106.948 38.3333 109.025 39.2298C111.793 40.4252 113.993 42.7181 115.14 45.6037C116 47.7685 116 50.5121 116 56C116 61.4878 116 64.2315 115.14 66.3962C113.993 69.2818 111.793 71.5749 109.025 72.7704C106.948 73.6667 104.315 73.6666 99.05 73.6666H19.95C14.6849 73.6666 12.0523 73.6667 9.97566 72.7704C7.20688 71.5749 5.00705 69.2818 3.86016 66.3962C3 64.2315 3 61.4878 3 56Z" stroke="white" stroke-width="6"/>
<path d="M48.2 3H99.05C104.315 3 106.948 3 109.025 3.89652C111.793 5.09191 113.993 7.38475 115.14 10.2706C116 12.4351 116 15.1789 116 20.6667C116 26.1544 116 28.8983 115.14 31.0627C113.993 33.9486 111.793 36.2414 109.025 37.4368C106.948 38.3333 104.315 38.3333 99.05 38.3333H19.95C14.6849 38.3333 12.0523 38.3333 9.97566 37.4368C7.20688 36.2414 5.00705 33.9486 3.86016 31.0627C3 28.8983 3 26.1544 3 20.6667C3 15.1789 3 12.4351 3.86016 10.2706C5.00705 7.38475 7.20688 5.09191 9.97566 3.89652C12.0523 3 14.6849 3 19.95 3H25.6" stroke="white" stroke-width="6" stroke-linecap="round"/>
<path d="M19.95 61.8889C23.0704 61.8889 25.6 59.2524 25.6 56C25.6 52.7477 23.0704 50.1111 19.95 50.1111C16.8296 50.1111 14.3 52.7477 14.3 56C14.3 59.2524 16.8296 61.8889 19.95 61.8889Z" fill="white"/>
<path d="M19.95 26.5555C23.0704 26.5555 25.6 23.9189 25.6 20.6666C25.6 17.4143 23.0704 14.7777 19.95 14.7777C16.8296 14.7777 14.3 17.4143 14.3 20.6666C14.3 23.9189 16.8296 26.5555 19.95 26.5555Z" fill="white"/>
<path d="M19.95 97.2222C23.0704 97.2222 25.6 94.5857 25.6 91.3333C25.6 88.081 23.0704 85.4445 19.95 85.4445C16.8296 85.4445 14.3 88.081 14.3 91.3333C14.3 94.5857 16.8296 97.2222 19.95 97.2222Z" fill="white"/>
</svg>
