<svg width="143" height="138" viewBox="0 0 143 138" fill="none" xmlns="http://www.w3.org/2000/svg">
<path d="M106.576 73.8161C106.508 74.0177 106.193 73.9869 106.014 74.0457C105.854 74.1326 105.724 74.2838 105.54 74.2838C105.371 74.2838 105.1 74.2138 105.079 74.0457C105.046 73.8161 105.377 73.5809 105.586 73.5809C105.721 73.5137 105.879 73.4772 106.044 73.4772C106.196 73.4772 106.34 73.5081 106.47 73.5669L106.462 73.5641C106.522 73.5893 106.565 73.6481 106.565 73.7181C106.565 73.7265 106.565 73.7321 106.562 73.7405V73.8105H106.573L106.576 73.8161ZM108.442 73.8161V73.7405C108.42 73.6705 108.486 73.5949 108.54 73.5669C108.665 73.5109 108.811 73.4772 108.966 73.4772C109.131 73.4772 109.288 73.5165 109.427 73.5837L109.421 73.5809C109.636 73.5809 109.964 73.8161 109.929 74.0541C109.91 74.225 109.641 74.2838 109.47 74.2838C109.283 74.2838 109.158 74.1326 108.993 74.0457C108.816 73.9813 108.499 74.0177 108.439 73.8189L108.442 73.8161ZM112.109 79.3554C110.666 80.2992 108.96 80.9629 107.132 81.2205L107.067 81.2289C105.423 81.1309 103.928 80.5344 102.708 79.5823L102.727 79.5963C102.206 79.1286 101.777 78.6581 101.463 78.4229C100.907 77.9552 100.974 77.2579 101.213 77.2579C101.582 77.3139 101.65 77.7256 101.889 77.958C102.214 78.1876 102.618 78.6581 103.109 79.123C104.186 80.0415 105.548 80.638 107.042 80.7557L107.067 80.7585C108.841 80.5988 110.455 80.0107 111.849 79.1006L111.806 79.1286C112.468 78.6553 113.314 77.9608 114.003 77.4931C114.532 77.017 114.507 76.5578 114.95 76.5578C115.384 76.6138 115.066 77.0254 114.45 77.72C113.783 78.2464 113.021 78.7869 112.232 79.2882L112.112 79.3582L112.109 79.3554ZM87.843 111.11H87.8755C88.0627 111.11 88.2472 111.13 88.4262 111.163L88.4072 111.16C89.8828 111.552 91.0981 112.499 91.8603 113.768L91.8738 113.793L94.958 119.615L94.9689 119.626C96.2085 121.791 97.5404 123.664 99.0296 125.392L98.9997 125.356C100.329 126.812 101.224 128.705 101.465 130.806L101.471 130.85V130.873C101.438 133.161 99.8081 135.048 97.6841 135.398L97.6597 135.401C97.1172 135.488 96.4879 135.536 95.8504 135.536C93.5258 135.536 91.3503 134.883 89.4841 133.743L89.5411 133.777C86.6847 132.542 83.37 131.777 79.8979 131.671H79.8572C78.8482 131.601 77.9693 131.069 77.4132 130.282L77.4078 130.274C77.2613 129.786 77.1772 129.226 77.1772 128.644C77.1772 127.663 77.416 126.742 77.8391 125.938L77.8255 125.969V125.955L77.8337 125.944C77.9449 125.418 78.01 124.81 78.01 124.188C78.01 123.421 77.9123 122.679 77.7279 121.973L77.7415 122.032C77.6302 121.612 77.5651 121.127 77.5651 120.626C77.5651 119.948 77.6818 119.301 77.8988 118.702L77.8879 118.741C78.4304 117.573 79.2306 117.341 80.2262 116.876C81.4143 116.504 82.4477 115.941 83.3483 115.215L83.3266 115.232H83.332V115.224C84.2 114.286 84.8402 113.121 85.597 112.292C86.126 111.594 86.9316 111.144 87.8403 111.116H87.8457L87.843 111.11ZM124.5 110.939C124.498 110.987 124.498 111.046 124.498 111.104C124.498 113.185 125.716 114.972 127.457 115.747L127.49 115.761C127.62 115.77 127.772 115.775 127.924 115.775C130.178 115.775 132.196 114.737 133.552 113.095L133.56 113.084L134.276 113.051C134.42 113.028 134.586 113.017 134.754 113.017C135.679 113.017 136.522 113.387 137.149 113.992L137.146 113.989L137.157 114C137.833 114.843 138.302 115.885 138.478 117.03L138.484 117.067C138.633 118.481 139.129 119.755 139.886 120.819L139.872 120.797C141.001 121.794 141.785 123.177 142.023 124.748L142.029 124.785L142.04 124.759V124.821L142.029 124.779C141.977 125.695 141.402 126.165 140.342 126.863C137.13 128.254 134.371 130.105 131.995 132.374L132.014 132.357C130.365 134.575 127.943 136.107 125.17 136.519L125.113 136.524C124.913 136.552 124.679 136.569 124.443 136.569C122.36 136.569 120.57 135.27 119.789 133.416L119.775 133.382L119.759 133.371C119.507 132.57 119.363 131.649 119.363 130.694C119.363 129.529 119.577 128.417 119.97 127.395L119.949 127.456C120.583 125.586 121.129 123.351 121.489 121.049L121.519 120.816C121.563 118.542 121.801 116.355 122.219 114.235L122.181 114.468C122.412 113.017 123.215 111.796 124.335 111.037L124.354 111.026L124.506 110.95L124.5 110.939ZM117.092 79.5907C118.72 85.6033 120.725 90.7981 123.188 95.713L122.973 95.2453C124.636 98.2978 125.93 101.84 126.67 105.593L126.708 105.828C126.733 105.828 126.763 105.828 126.793 105.828C127.381 105.828 127.951 105.909 128.493 106.063L128.447 106.052C128.746 104.946 128.916 103.677 128.916 102.367C128.916 98.3734 127.324 94.7608 124.758 92.176L124.755 92.1732C124.009 91.473 123.969 90.9998 124.338 90.9998C126.972 93.5482 128.919 96.8191 129.885 100.505L129.917 100.647C130.159 101.569 130.297 102.627 130.297 103.719C130.297 104.702 130.186 105.66 129.974 106.576L129.991 106.492C130.191 106.598 130.425 106.68 130.671 106.724L130.688 106.727C134.187 108.595 135.478 110.009 134.857 112.107V111.956C134.653 111.944 134.45 111.956 134.247 111.956H134.192C134.705 110.32 133.577 109.068 130.582 107.671C127.482 106.271 125.002 106.495 124.582 109.298C124.552 109.435 124.53 109.595 124.522 109.76V109.768C124.324 109.853 124.088 109.931 123.844 109.987L123.814 109.993C122.436 110.933 121.454 112.398 121.131 114.106L121.126 114.146C120.725 116.092 120.472 118.346 120.432 120.651V120.685V120.696C120.185 122.48 119.808 124.076 119.298 125.605L119.352 125.42C116.686 127.672 113.246 129.033 109.495 129.033C106.429 129.033 103.57 128.123 101.159 126.549L101.224 126.588C100.828 125.88 100.375 125.266 99.8596 124.72L99.8623 124.723C99.5992 124.275 99.29 123.891 98.9346 123.561L98.9292 123.558C99.4907 123.558 100.033 123.471 100.546 123.312L100.505 123.323C100.993 123.085 101.368 122.673 101.566 122.169L101.571 122.155C101.62 121.895 101.65 121.598 101.65 121.292C101.65 120.046 101.175 118.918 100.399 118.083L100.402 118.086C98.723 115.955 96.7157 114.179 94.4453 112.821L94.3423 112.765C92.5221 111.678 91.1442 109.979 90.4633 107.943L90.4443 107.881C90.1921 106.99 90.0456 105.965 90.0456 104.907C90.0456 103.918 90.1731 102.961 90.4091 102.048L90.3928 102.123C91.4154 98.4434 92.8911 95.2313 94.7871 92.3328L94.7112 92.4532C95.0747 92.2264 94.836 92.9265 93.3278 95.8614C92.042 97.8581 91.2744 100.314 91.2744 102.955C91.2744 105.307 91.882 107.511 92.9453 109.413L92.9128 109.351C93.0538 105.685 93.8486 102.246 95.175 99.1043L95.1072 99.2863C97.9689 93.9599 100.136 87.7736 101.278 81.2177L101.333 80.8509C101.495 80.9769 102.068 81.3242 102.312 81.5566C103.05 82.0215 103.6 82.7216 104.311 83.1837C105.035 83.9118 106.028 84.3599 107.118 84.3599C107.175 84.3599 107.232 84.3599 107.289 84.3571H107.281C107.414 84.3683 107.536 84.3795 107.653 84.3795C108.898 84.3543 110.059 84.0098 111.068 83.4217L111.033 83.4413C112.015 82.9736 112.796 82.2735 113.542 82.0411H113.558C115.009 81.635 116.224 80.7697 117.084 79.6075L117.095 79.5907H117.092ZM107.601 72.0938C107.609 72.0938 107.617 72.0938 107.626 72.0938C109.169 72.0938 110.593 72.6175 111.741 73.5024L111.722 73.4884C112.747 74.1438 113.93 74.7011 115.18 75.0959L115.289 75.1239H115.299C115.967 75.432 116.517 75.9109 116.911 76.5074L116.919 76.5214V76.0621C117.044 76.3197 117.12 76.625 117.12 76.947C117.12 77.2215 117.065 77.4819 116.97 77.72L116.976 77.706C116.195 79.1258 114.928 80.1816 113.414 80.6408L113.371 80.652V80.6576C112.462 81.1309 111.673 81.8226 110.745 82.2847C109.796 82.8728 108.654 83.2201 107.43 83.2201C107.39 83.2201 107.349 83.2201 107.308 83.2201H107.314C107.254 83.2229 107.183 83.2257 107.113 83.2257C106.641 83.2257 106.185 83.1389 105.768 82.9764L105.795 82.9848C105.363 82.7412 105.008 82.5116 104.664 82.2651L104.701 82.2931C104.086 81.7358 103.408 81.2009 102.697 80.7109L102.626 80.666V80.6492H102.61C101.593 80.092 100.793 79.2378 100.299 78.196L100.285 78.1624C100.212 77.9748 100.172 77.7564 100.172 77.5295C100.172 76.919 100.475 76.3813 100.934 76.0677L100.939 76.0649C101.699 75.5916 102.228 75.1155 102.578 74.8887C102.93 74.631 103.063 74.533 103.174 74.4294H103.18V74.4182C103.907 73.4688 104.87 72.7407 105.979 72.3291L106.023 72.3151C106.494 72.175 107.037 72.0938 107.599 72.0882L107.601 72.0938ZM102.957 66.1232H103.079C103.589 66.1344 104.059 66.3109 104.438 66.5993L104.433 66.5937C104.919 67.039 105.315 67.5795 105.586 68.19L105.597 68.2208C105.903 68.9069 106.093 69.705 106.115 70.5452V70.5536V70.5676C106.126 70.6964 106.131 70.8448 106.131 70.9932C106.131 71.1697 106.123 71.3461 106.107 71.5197L106.109 71.4973V71.7774C106.009 71.8026 105.919 71.839 105.827 71.8614C105.309 72.0826 104.872 72.3179 104.457 72.5839L104.495 72.5615C104.517 72.4075 104.528 72.231 104.528 72.0518C104.528 71.9034 104.52 71.755 104.503 71.6093L104.506 71.6261V71.5729C104.457 71.1417 104.36 70.7468 104.216 70.3743L104.227 70.4051C104.116 70.0355 103.92 69.7218 103.665 69.4726C103.516 69.3326 103.318 69.2457 103.098 69.2457C103.079 69.2457 103.06 69.2457 103.041 69.2485H103.044H102.974C102.694 69.2793 102.461 69.4586 102.344 69.705L102.342 69.7106C102.133 69.9711 101.989 70.2931 101.935 70.646V70.6572C101.872 70.898 101.84 71.1753 101.84 71.4609C101.84 71.5841 101.845 71.7074 101.859 71.8278V71.8138V71.867C101.902 72.2983 102 72.6959 102.141 73.0656L102.13 73.0348C102.244 73.4044 102.437 73.7209 102.691 73.9729C102.724 74.0065 102.762 74.0345 102.805 74.0569H102.808C102.583 74.2054 102.388 74.3622 102.209 74.5358L102.211 74.533C102.089 74.645 101.94 74.7291 101.775 74.7683L101.767 74.7711C101.433 74.3594 101.124 73.8973 100.858 73.41L100.836 73.3652C100.53 72.6791 100.34 71.8838 100.31 71.0408V71.0296C100.299 70.8952 100.294 70.7384 100.294 70.5788C100.294 69.9039 100.399 69.2541 100.592 68.6464L100.581 68.6912C100.782 67.9687 101.11 67.3442 101.547 66.8121L101.541 66.8205C101.886 66.4005 102.39 66.1344 102.957 66.1204H102.96L102.957 66.1232ZM112.999 65.916H113.043C113.045 65.916 113.048 65.916 113.053 65.916C113.799 65.916 114.483 66.1764 115.031 66.6133L115.023 66.6077C115.644 67.1034 116.143 67.7279 116.493 68.442L116.507 68.4728C116.835 69.2177 117.038 70.0831 117.068 70.996V71.0072C117.068 70.9372 117.087 70.8672 117.087 70.7972V71.1641L117.073 71.0912L117.06 71.0072C117.052 71.9034 116.867 72.7491 116.536 73.5193L116.553 73.48C116.384 73.9365 116.14 74.3286 115.831 74.6534C115.75 74.603 115.649 74.5554 115.549 74.5134L115.533 74.5078C115.167 74.3902 114.846 74.2306 114.556 74.0345L114.57 74.0429C114.361 73.9533 114.111 73.8749 113.854 73.8161L113.824 73.8105C114.044 73.5977 114.247 73.3708 114.434 73.13L114.445 73.116C114.616 72.7015 114.722 72.2226 114.743 71.7186V71.7102V71.6401C114.743 71.6177 114.743 71.5953 114.743 71.5701C114.743 71.094 114.667 70.6376 114.526 70.2119L114.534 70.2427C114.364 69.7974 114.155 69.4138 113.905 69.0637L113.916 69.0777C113.68 68.8313 113.368 68.6632 113.018 68.6156H113.01H112.956C112.953 68.6156 112.948 68.6156 112.945 68.6156C112.587 68.6156 112.267 68.7977 112.071 69.0749L112.069 69.0777C111.754 69.3942 111.515 69.7862 111.38 70.2259L111.374 70.2455C111.203 70.6572 111.092 71.1361 111.071 71.6345V71.6429V71.7102C111.076 72.0462 111.1 72.3711 111.144 72.6875L111.138 72.6455C110.485 72.4103 109.655 72.1722 109.08 71.9398C109.047 71.7354 109.025 71.4945 109.02 71.2481V71.2397V71.1697C109.017 71.1137 109.017 71.0492 109.017 70.9848C109.017 70.0775 109.204 69.2177 109.543 68.442L109.527 68.4812C109.815 67.6999 110.322 67.0586 110.97 66.6245L110.984 66.6161C111.537 66.1792 112.24 65.916 112.999 65.916ZM111.206 54C110.68 54 110.137 54.028 109.579 54.0728C95.2537 55.2378 99.054 70.8952 98.8343 76.1125C98.6986 80.106 97.3858 83.755 95.2401 86.7319L95.2754 86.6814C91.4588 91.1678 88.3448 96.4103 86.1856 102.148L86.069 102.504C85.3691 104.422 84.9623 106.638 84.9623 108.951C84.9623 109.749 85.0111 110.536 85.1033 111.306L85.0952 111.214C84.9433 111.342 84.8158 111.499 84.7263 111.678L84.7236 111.687C83.842 112.625 83.1991 113.787 82.4749 114.622C81.7072 115.229 80.8066 115.708 79.8301 116.005L79.7732 116.019C78.5145 116.408 77.4892 117.257 76.8572 118.374L76.8436 118.4C76.5615 118.993 76.396 119.691 76.396 120.43C76.396 120.458 76.396 120.483 76.396 120.511C76.4015 121.178 76.4666 121.822 76.594 122.449L76.5832 122.385C76.7351 122.998 76.8219 123.704 76.8219 124.429C76.8219 124.905 76.7839 125.373 76.7107 125.829L76.7161 125.779C76.2631 126.655 76 127.697 76 128.803C76 129.582 76.1302 130.327 76.3716 131.018L76.3581 130.974C77.0986 132.06 78.2189 132.828 79.5155 133.071L79.5453 133.077C83.0011 133.376 86.1938 134.121 89.2047 135.261L88.9497 135.177C90.8431 136.339 93.1243 137.025 95.5575 137.025C96.355 137.025 97.1362 136.953 97.8957 136.81L97.817 136.821C99.6263 136.398 101.102 135.18 101.897 133.547L101.913 133.511C103.904 133.5 106.082 132.57 109.573 132.343C111.941 132.141 114.909 133.278 118.308 133.043C118.408 133.488 118.541 133.878 118.709 134.245L118.693 134.208L118.704 134.219C119.745 136.471 121.932 138 124.465 138C124.685 138 124.902 137.989 125.116 137.966L125.089 137.969C128.211 137.493 130.891 135.818 132.719 133.424L132.738 133.399C135.025 131.248 137.694 129.475 140.618 128.21L140.8 128.14C141.972 127.605 142.813 126.501 142.997 125.174L143 125.154C142.84 123.211 141.937 121.516 140.591 120.349L140.58 120.34V120.001L140.57 119.99C139.989 119.066 139.582 117.968 139.428 116.792L139.422 116.75C139.278 115.313 138.668 114.045 137.754 113.09H137.743C137.542 112.902 137.325 112.855 137.106 112.617C136.927 112.485 136.704 112.404 136.463 112.393C136.992 110.707 137.296 108.769 137.296 106.755C137.296 104.123 136.772 101.616 135.828 99.3424L135.874 99.4656C133.964 94.7832 131.483 90.7533 128.463 87.2303L128.501 87.2779C125.504 84.2478 123.543 80.134 123.217 75.5524L123.215 75.4936C123.304 67.9631 124.015 54.0308 111.201 54.0112L111.206 54Z" fill="white"/>
<path fill-rule="evenodd" clip-rule="evenodd" d="M34.297 28.172C34.3158 33.5691 34.3383 42.7388 34.3571 49.8656C47.9098 51.1852 61.4624 52.5455 74.9925 54C74.9925 45.4916 75.0075 37.0204 74.9925 28.9248C61.4286 28.9248 47.8684 28.172 34.297 28.172ZM0 28.1747V46.4985C10.2218 47.4916 20.4436 48.4407 30.6466 49.5255C30.6654 42.4365 30.6391 35.3454 30.6391 28.2564C20.4248 28.2699 10.2143 28.1504 0 28.1747ZM0 7.67681V25.9493C10.2218 25.9682 20.4436 25.8568 30.6654 25.8649C30.6579 18.7921 30.6579 11.7279 30.6466 4.65513C20.4173 5.57531 10.188 6.54883 0 7.67681ZM75 25.5735C61.4549 25.6113 47.9098 25.76 34.3571 25.7897C34.3496 18.6009 34.3496 11.4206 34.3571 4.23721C47.8835 2.75032 61.4399 1.35194 74.9925 0C75 8.5273 74.9925 17.0462 75 25.5735Z" fill="white"/>
</svg>
